# xmcd CD database file
#
# Track frame offsets:
#	150
#	24431
#	49564
#	77787
#	88175
#	109772
#	117137
#	131981
#	156372
#
# Disc length: 2376 seconds
#
# Revision: 0
# Processed by: cddbd v1.5.1PL0 Copyright (c) Steve Scherf et al.
# Submitted via: CDex 1.50
#
DISCID=70094609
DTITLE=John Prendo - Colours From The Sea
DYEAR=1996
DGENRE=Blues
TTITLE0=Colours From The Sea
TTITLE1=Heartwood
TTITLE2=Open Blue
TTITLE3=A Toi, Bordardoue
TTITLE4=Head In The Stars
TTITLE5=Le Goéland
TTITLE6=Vazen
TTITLE7=Sowelu
TTITLE8=Whoever You Are
EXTD=YEAR: 1996
EXTT0=
EXTT1=
EXTT2=
EXTT3=
EXTT4=
EXTT5=
EXTT6=
EXTT7=
EXTT8=
PLAYORDER=
